<?xml version="1.0" encoding="utf-8"?>
<!-- Generator: Adobe Illustrator 23.0.1, SVG Export Plug-In . SVG Version: 6.00 Build 0)  -->
<svg version="1.1" id="Layer_1" xmlns="http://www.w3.org/2000/svg" xmlns:xlink="http://www.w3.org/1999/xlink" x="0px" y="0px"
	 viewBox="0 0 506.9 284.9" style="enable-background:new 0 0 506.9 284.9;" xml:space="preserve">
<style type="text/css">
	.st0{fill:#FFFFFF;}
	.st1{fill:#244E67;}
	.st2{fill:#0E7097;}
	.st3{font-family:'Corbel-BoldItalic';}
	.st4{font-size:106.3458px;}
</style>
<title>logoB</title>
<g>
	<rect x="-0.9" y="81.7" class="st0" width="509.4" height="133.2"/>
	<polygon class="st1" points="82.7,103.7 179.1,101.1 179.1,203.2 82.7,203.2 	"/>
	<polygon class="st1" points="215.1,103.7 311.6,103.7 311.6,203.2 215.1,201.9 	"/>
	<polygon class="st1" points="357.9,101.1 442.8,103.7 442.8,203.2 358.9,203.5 	"/>
	<g>
		<polygon class="st2" points="-0.9,0.2 177.3,0.2 180.4,286 -0.9,286 -0.9,205.3 82.2,201.1 82.2,103.5 -0.9,97.8 		"/>
		<polygon class="st2" points="163.6,0.2 304.9,0.2 307.8,286 141.8,286 141.8,205.3 217.9,201.1 217.9,103.5 157.8,99.2 		"/>
		<polygon class="st2" points="508.4,0.2 361.1,0.2 357.9,286 508.4,286 508.4,205.8 443.3,201.1 443.3,103.5 509,99.2 		"/>
		<polygon class="st2" points="371.5,0.2 217,0.2 213.9,286 395.2,286 395.2,205.3 312.1,201.1 312.1,103.5 377.8,99.2 		"/>
	</g>
	<g>
		<rect x="100.7" y="101.2" class="st0" width="3.9" height="103.2"/>
		<rect x="152.1" y="101.2" class="st0" width="3.9" height="103.2"/>
		<rect x="126.4" y="99.8" class="st0" width="3.9" height="106"/>
	</g>
	<text transform="matrix(0.9552 0 0 1 116.7236 86.8711)" class="st0 st3 st4">LEARN</text>
	<text transform="matrix(0.9552 0 0 1 7.5332 86.8613)" class="st0 st3 st4">   I</text>
	<text transform="matrix(0.9552 0 0 1 156.0146 278.9336)" class="st0 st3 st4">FLIX</text>
	<g>
		<rect x="231.9" y="99.9" class="st0" width="3.9" height="103.2"/>
		<rect x="283.3" y="99.9" class="st0" width="3.9" height="103.2"/>
		<rect x="257.6" y="98.5" class="st0" width="3.9" height="106"/>
	</g>
	<g>
		<rect x="372.1" y="101.2" class="st0" width="3.9" height="103.2"/>
		<rect x="423.5" y="101.2" class="st0" width="3.9" height="103.2"/>
		<rect x="397.8" y="99.8" class="st0" width="3.9" height="106"/>
	</g>
</g>
</svg>
