<svg id="Layer_1" data-name="Layer 1" xmlns="http://www.w3.org/2000/svg" viewBox="0 0 566.93 566.93">
  <title>logoB</title>
  <g>
    <rect x="16.27" y="125.41" width="534.38" height="309.38" style="fill: #fff"/>
    <rect x="29.06" y="221.3" width="506.26" height="131.68" style="fill: #fff"/>
    <polygon points="112.16 243.03 208.04 240.47 208.04 341.47 112.16 341.47 112.16 243.03" style="fill: #244e67"/>
    <polygon points="243.83 243.03 339.71 243.03 339.71 341.47 243.83 340.19 243.83 243.03" style="fill: #244e67"/>
    <polygon points="385.74 240.47 470.12 243.03 470.12 341.47 386.65 341.73 385.74 240.47" style="fill: #244e67"/>
    <g>
      <polygon points="29.06 140.75 206.17 140.75 209.32 423.29 29.06 423.29 29.06 343.56 111.71 339.37 111.71 242.86 29.06 237.26 29.06 140.75" style="fill: #0e7097"/>
      <polygon points="192.57 140.75 333 140.75 335.88 423.29 170.96 423.29 170.96 343.56 246.58 339.37 246.58 242.86 186.81 238.66 192.57 140.75" style="fill: #0e7097"/>
      <polygon points="535.31 140.75 388.89 140.75 385.74 423.29 535.31 423.29 535.31 344.02 470.56 339.37 470.56 242.86 535.89 238.66 535.31 140.75" style="fill: #0e7097"/>
      <polygon points="399.2 140.75 245.7 140.75 242.56 423.29 422.81 423.29 422.81 343.56 340.16 339.37 340.16 242.86 405.5 238.66 399.2 140.75" style="fill: #0e7097"/>
    </g>
    <g>
      <rect x="130.05" y="240.57" width="3.84" height="102.07" style="fill: #fff"/>
      <rect x="181.19" y="240.57" width="3.84" height="102.07" style="fill: #fff"/>
      <rect x="155.62" y="239.19" width="3.84" height="104.83" style="fill: #fff"/>
    </g>
    <text transform="translate(146.01 226.42) scale(0.96 1)" style="font-size: 105.16521453857422px;fill: #fff;font-family: Corbel-BoldItalic, Corbel;font-weight: 700;font-style: italic">LEARN</text>
    <text transform="translate(37.49 226.41) scale(0.96 1)" style="font-size: 105.16521453857422px;fill: #fff;font-family: Corbel-BoldItalic, Corbel;font-weight: 700;font-style: italic"><tspan xml:space="preserve">   I</tspan></text>
    <text transform="translate(185.06 416.35) scale(0.96 1)" style="font-size: 105.16521453857422px;fill: #fff;font-family: Corbel-BoldItalic, Corbel;font-weight: 700;font-style: italic">FLIX</text>
    <g>
      <rect x="260.45" y="239.29" width="3.84" height="102.07" style="fill: #fff"/>
      <rect x="311.59" y="239.29" width="3.84" height="102.07" style="fill: #fff"/>
      <rect x="286.02" y="237.91" width="3.84" height="104.83" style="fill: #fff"/>
    </g>
    <g>
      <rect x="399.8" y="240.57" width="3.84" height="102.07" style="fill: #fff"/>
      <rect x="450.94" y="240.57" width="3.84" height="102.07" style="fill: #fff"/>
      <rect x="425.37" y="239.19" width="3.84" height="104.83" style="fill: #fff"/>
    </g>
  </g>
</svg>
